<svg xmlns="http://www.w3.org/2000/svg" version="1.1" xmlns:xlink="http://www.w3.org/1999/xlink" width="1000" height="1000"><g clip-path="url(#SvgjsClipPath1005)"><rect width="1000" height="1000" fill="#ffffff"></rect><g transform="matrix(2.8925619834710745,0,0,2.8925619834710745,150,311.9834710743802)"><svg xmlns="http://www.w3.org/2000/svg" version="1.1" xmlns:xlink="http://www.w3.org/1999/xlink" width="242" height="130"><svg id="Layer_1" data-name="Layer 1" xmlns="http://www.w3.org/2000/svg" viewBox="0 0 242 130">
  <defs>
    <style>
      .cls-1 {
        fill: #fff;
      }
    </style>
  <clipPath id="SvgjsClipPath1005"><rect width="1000" height="1000" x="0" y="0" rx="350" ry="350"></rect></clipPath></defs>
  <path class="cls-1" d="M0,0h242v130H0V0ZM8.24,89.08c-4.09,5.87-4.94,14.97-1.43,21.37,4.99,9.1,25.07,19.19,39.77,10.13,15.55-9.58,25.62-36.74,25.72-54.54.08-13.94-2.26-24.03-2.08-36.71,10.87-2.37,7.74.32,13.31-.15,4.92-.41,2.82-16.34,2.28-19.89-.71-4.62-6.22-5.03-9.84-4.29-14.26,2.92-27.43,3.95-42.04,4.18-7.11,4.44.8,9.28-9.03,10.36l-10.52,1.16c-2.26.25-4.85,2.98-4.76,4.76.45,8.44,7.2,3.02,8.03,14.03.12,1.62.61,4.84,1.83,5.45s4.05.84,5.64.68l10.78-1.05c2.08-.2,4.71-.53,6.01.82,1,1.04,1.82,3.76,1.74,5.52-.33,7.03-.97,32.13-6.35,35.66-4.03.05-8.3-1.73-12.05-3.53-5.93-2.83-12.93.19-17,6.03ZM187.26,18.87c.01-2.96-2.38-5.21-4.86-5.64-1.6-.28-4.72,2.07-4.93,4.05-1.18,11.23-2.47,21.43-4.54,32.39l-3.86,20.45c-1.75,9.28-8.72,40.16-6.28,46.3.49,1.23,2.58,1.68,4.26,1.8,7.32.52,16.47,3.21,22.45.92,3.77-1.45,3.75-7.57,3.49-11.04-.55-7.32.2-13.41,1.47-20.35.38-2.06.57-5.59,1.68-6.91,2.6-3.09,10.8-2,18.16-3.77,3.92-.95,4.18-6.88,4.25-9.91l.31-13.21c-2.69-3.11-7.27-2.04-12.01-1.96.4-2.22,2.27-4.55,3.58-4.19,6.35,1.71,18.95,1.01,21.49-1.35,3.53-3.28-1.71-11.03,4.78-28.57.49-1.33.12-4.47-.74-5.34-2.12-2.14-11.61-1.4-14.81-1.01l-28.4,3.47c-1.03.99-2.83,2.85-3.78,4.23-1.67,2.43,2.32,6.13,4.98,5.84,8.42-.93,16-2.21,24.11-4.18,2.62-.64,6.34-.1,7.78,1.75l-2.23,12.03c-.21,1.13-1.66,3.43-2.71,3.66-.88.19-3.08.06-3.92-.3l-7.72-3.39c-2.39-1.05-8.9-3.5-9.88.66-1.74,7.35-2.91,15.86-2.84,23.19.82,4.01,7.58,2.14,10.16,1.86,3.16-.34,3.28,7.29.66,7.9-14.33,3.34-24.76-1.4-22.77,8.82,2.69,13.8-2.16,10.94-1.13,28.39.07,1.15-1.4,3.99-2.44,3.88l-3.78-.41-2.99-1.56c-.74-.39-.82-3.62-.64-4.67l6.75-38.17,2.09-10.43c2.38-11.85,4.75-23,4.8-35.24ZM157.67,67.75c1.39-7.31-1.18-14.28-3.5-21.17-2.47-7.31-9.66-9.31-15.14-13.61-2.81-2.21-5.23-4.64-8.79-6.33-2.73-1.3-6.71-4.65-9.34-4.9l-9.73-.93c-10.24-.98-7.72-8.7-14.33-6.14-5.47,2.12-3.34,13.04-3.42,17.59-.36,20.9-1.27,41.43.17,62.28.51,7.39.39,13.91-.33,21.51-.21,2.21.82,5.57,2.5,6.7,2.77,1.87,8.99-.09,12.72-2.24,1.84-1.06,6.06-1.04,8.34-1.89,25.66-9.57,35.75-24.08,40.86-50.87Z"></path>
  <path d="M8.24,89.08c4.07-5.84,11.07-8.86,17-6.03,3.75,1.79,8.02,3.58,12.05,3.53,5.37-3.54,6.02-28.64,6.35-35.66.08-1.76-.74-4.48-1.74-5.52-1.3-1.35-3.92-1.02-6.01-.82l-10.78,1.05c-1.59.15-4.42-.07-5.64-.68s-1.71-3.83-1.83-5.45c-.82-11.01-7.58-5.58-8.03-14.03-.09-1.79,2.5-4.51,4.76-4.76l10.52-1.16c9.82-1.08,1.92-5.91,9.03-10.36,14.61-.23,27.79-1.26,42.04-4.18,3.62-.74,9.13-.34,9.84,4.29.54,3.55,2.64,19.47-2.28,19.89-5.57.47-2.43-2.22-13.31.15-.19,12.68,2.15,22.77,2.08,36.71-.1,17.79-10.17,44.95-25.72,54.54-14.7,9.06-34.78-1.04-39.77-10.13-3.51-6.4-2.66-15.5,1.43-21.37ZM36.58,97.57c-6.21.83-11.29-3.89-16.73-4.45-3.58.19-5.39,6.01-5.11,9.32s2.9,5.91,5.7,8.16c8.05,6.44,18.78,6.39,25.27-1.91,8.73-11.17,14.18-24.36,15.62-38.66,2.28-22.56-2.3-20.26-1.02-45.77.12-2.5,3.28-4.46,5.5-4.51l7.43-.15c.68-.01,2.26-1.39,2.27-2.06s-.34-2.38-1.01-2.39c-5.71-.07-1.07,2.14-14.36,2.29l-7.58.09-4.71,8.09-17.2,2.54c-1.42.21-3.14,1.76-3.8,2.86s.74,5.06,2.01,5.01c4.76-.21,9.53-.54,13.81-1.21,2.35-.37,5.66-1.19,6.93.49,5.23,6.91.72,39.61-1.33,49.04-1.14,5.25-5.7,12.43-11.69,13.23Z"></path>
  <path d="M187.26,18.87c-.05,12.24-2.42,23.39-4.8,35.24l-2.09,10.43-6.75,38.17c-.19,1.05-.1,4.29.64,4.67l2.99,1.56,3.78.41c1.05.11,2.51-2.73,2.44-3.88-1.02-17.45,3.82-14.59,1.13-28.39-1.99-10.22,8.44-5.48,22.77-8.82,2.62-.61,2.5-8.24-.66-7.9-2.58.28-9.34,2.14-10.16-1.86-.07-7.33,1.1-15.84,2.84-23.19.98-4.15,7.49-1.71,9.88-.66l7.72,3.39c.84.37,3.04.5,3.92.3,1.06-.23,2.5-2.53,2.71-3.66l2.23-12.03c-1.44-1.84-5.16-2.38-7.78-1.75-8.11,1.97-15.7,3.26-24.11,4.18-2.66.29-6.65-3.41-4.98-5.84.95-1.38,2.76-3.24,3.78-4.23l28.4-3.47c3.19-.39,12.68-1.13,14.81,1.01.87.87,1.24,4.01.74,5.34-6.5,17.54-1.25,25.28-4.78,28.57-2.54,2.36-15.14,3.06-21.49,1.35-1.32-.35-3.18,1.98-3.58,4.19,4.75-.08,9.33-1.15,12.01,1.96l-.31,13.21c-.07,3.03-.33,8.96-4.25,9.91-7.36,1.78-15.56.68-18.16,3.77-1.11,1.32-1.3,4.85-1.68,6.91-1.27,6.94-2.02,13.03-1.47,20.35.26,3.47.28,9.59-3.49,11.04-5.98,2.29-15.13-.4-22.45-.92-1.67-.12-3.77-.58-4.26-1.8-2.44-6.14,4.52-37.02,6.28-46.3l3.86-20.45c2.07-10.95,3.36-21.16,4.54-32.39.21-1.99,3.33-4.33,4.93-4.05,2.48.43,4.87,2.68,4.86,5.64Z"></path>
  <path d="M157.67,67.75c-5.1,26.79-15.2,41.3-40.86,50.87-2.29.85-6.5.83-8.34,1.89-3.73,2.15-9.95,4.1-12.72,2.24-1.68-1.13-2.71-4.49-2.5-6.7.72-7.59.84-14.12.33-21.51-1.44-20.85-.52-41.37-.17-62.28.08-4.55-2.06-15.47,3.42-17.59,6.61-2.56,4.09,5.16,14.33,6.14l9.73.93c2.63.25,6.6,3.6,9.34,4.9,3.57,1.69,5.98,4.13,8.79,6.33,5.48,4.3,12.67,6.3,15.14,13.61,2.32,6.89,4.9,13.86,3.5,21.17ZM123.34,103.93c25.56-11.81,31.86-44.26,17.85-57.9-1.42-1.39-4.83-3.22-6.61-4.5-6.89-4.94-20.77-16.75-29.5-10.14-.78.59-1.21,3.17-.46,4.01,5.44,6.1-1.84,7.22-1.14,27.06l.79,22.62.74,24.73c5.97.32,12.35-3.12,18.33-5.88Z"></path>
  <path class="cls-1" d="M36.58,97.57c6-.8,10.55-7.98,11.69-13.23,2.05-9.43,6.56-42.14,1.33-49.04-1.27-1.68-4.57-.85-6.93-.49-4.28.67-9.05,1-13.81,1.21-1.27.06-2.67-3.92-2.01-5.01s2.38-2.65,3.8-2.86l17.2-2.54,4.71-8.09,7.58-.09c13.29-.15,8.65-2.35,14.36-2.29.67,0,1.03,1.72,1.01,2.39s-1.6,2.04-2.27,2.06l-7.43.15c-2.23.05-5.38,2.01-5.5,4.51-1.27,25.51,3.3,23.21,1.02,45.77-1.45,14.3-6.89,27.49-15.62,38.66-6.49,8.31-17.22,8.35-25.27,1.91-2.8-2.24-5.43-4.97-5.7-8.16s1.53-9.13,5.11-9.32c5.44.56,10.53,5.27,16.73,4.45Z"></path>
  <path class="cls-1" d="M123.34,103.93c-5.98,2.76-12.36,6.2-18.33,5.88l-.74-24.73-.79-22.62c-.7-19.84,6.58-20.95,1.14-27.06-.75-.84-.32-3.42.46-4.01,8.74-6.6,22.61,5.2,29.5,10.14,1.78,1.28,5.18,3.11,6.61,4.5,14.02,13.64,7.71,46.09-17.85,57.9ZM139.75,71.34c-.16-2.16-1.02-5.65-1.44-7.31-10.38-5.18-9.69-12.35-20-13.57-1.24.54-3.14,3.19-3.15,4.68-.07,8.08-.8,16.52-1.84,25.21-.36,3,3.89,6.87,6.52,7.49,3.26.77,7.6-1.42,10.37-3.7,4.03-3.3,10.04-5.87,9.54-12.81Z"></path>
  <path d="M139.75,71.34c.5,6.93-5.51,9.5-9.54,12.81-2.77,2.28-7.12,4.46-10.37,3.7-2.63-.62-6.88-4.49-6.52-7.49,1.04-8.7,1.77-17.13,1.84-25.21.01-1.49,1.91-4.15,3.15-4.68,10.31,1.22,9.63,8.38,20,13.57.42,1.67,1.29,5.15,1.44,7.31ZM129.41,70.94c-.27-1.06-2.93-2.37-4.97-3.27l-.68,8.52c3.28-.24,6.36-2.5,5.65-5.25Z"></path>
  <path class="cls-1" d="M129.41,70.94c.71,2.75-2.37,5.01-5.65,5.25l.68-8.52c2.04.9,4.69,2.21,4.97,3.27Z"></path>
</svg></svg></g></g></svg>