<?xml version="1.0" encoding="UTF-8"?>
<svg id="Layer_1" data-name="Layer 1" xmlns="http://www.w3.org/2000/svg" viewBox="0 0 691 644">
  <defs>
    <style>
      .cls-1 {
        fill: #fff;
      }
    </style>
  </defs>
  <path class="cls-1" d="M0,644V0h691v644H0ZM148.34,476.69l-4.29,14.25-11.08,29.1c-1.31,3.44-3.83,9.58-.88,11.97,4.79,3.88,8.58.17,11.32-2.45,6.29-6.02,12.42-11.56,18.01-18.07,3.01-3.5,5.7-6.22,9.26-9.38-3.35,13.63-7.76,24.28-12.61,36.79l-15.93,41.1c-3.38,8.71-5.31,16.88-7.29,26.12-.36,1.65,1.53,4.91,2.72,6.01,6.92,6.41,12.47-10.99,14.81-15.77,8.2-16.74,16.7-32.63,22.6-50.34,2-6.03,3.89-11.92,6.61-17.59l11.92-24.83c7.12-14.83,13.98-28.8,23.28-42.73,7.45-11.15,11.87-23.58,17.37-35.78,2.03-4.49,2.23-8.62.61-14.13,16.65,2.06,28.85,1.9,43.43-3.94,7.49-3,13.79-8.04,20.72-12.11s12.28-8.73,16.41-15.59l13.04-21.66c7.45,8.57,17.88,10.65,28.77,8.77l10.14-1.75c1.69-.29,5.66.51,7.32-.18l13.44-5.62c36.1-15.09,19.46-8.11,48.27-25.7,12.16-7.42,23.71-23.75,29.25-36.68,2.6-6.08,3.27-12.82,3.72-19.53l1.09-16.01c1.89-.89,6.32-.59,8.64-1.08,16.9-3.56,29.21-15.87,37.82-29.99,17.92-29.4,16.34-59.26,4.96-90.51-3.8-10.44-8.05-19.75-16.86-27.66,22.28-10.11,32.2-12.11,53.81-22.19l38.21-17.82c11.14-5.19,21.96-9.9,33.43-14.44l10.61-4.2,8.69-3.67c5.13-2.17,7.22-8.4,5.17-10.99-3.25-4.1-27.8,3.44-33.9,5.4-12.79,4.12-25.33,6.73-38.22,10.05l-42.07,10.83c-3.7.95-7.24,1.27-10.58,1.05l20.82-12.36c2.09-1.24,4.52-3.19,6.84-4.92,3.33-2.5,6.23-8.93,3.27-12.33s-7.79-.35-10.8.98c-30.66,13.51-68.65,20.11-101.28,32.9-5.02-9.28-9.74-19.21-17.9-25.85l-9.54-7.77c-12.26-9.99-9.68-7.44-23.07-12.98-5.08-2.1-10.77-4.34-16.34-5.16-25.35-3.74-40.14.07-61.28,13.83l-10.84,7.05c-1.63,1.06-4.15,2.84-5.68,4.18l-16.63,14.58c-16.16-15.69-45.76-21.14-66.12-14.67-10.77,3.42-21.38,7.13-29.56,14.76-17.65,16.47-27.11,25.12-35.73,48.21-4.29,11.49-3.4,24.1-.26,35.89.29,1.08-2.71,2.72-3.34,1.99l-2.67-3.11-9.69-11.24c-4.3-4.99-7.91-10.03-11.82-15.27-8.59-11.53-18.21-21.56-27.93-31.92l-13.08-13.95-17.93-20.12c-3.95-4.43-19.91-20.48-23.4-22.22-1.56-.78-5.79.43-6.58,2.1-1.84,3.92.9,8.41,3.48,11.58l18.83,23.16c12.17,14.97,18.78,37.01,30,55.02l-13.42-5.83c-3.52-1.53-16.07-9.45-18.67-3.17-1.98,4.77,1.74,6.95,7.51,16.72,4.42,7.47,9.64,14.16,14.79,21.23,2.37,3.25,5.12,6.01,7.72,9.19,7.25,8.89,13.64,18.34,20.38,27.72l-1.9,5.76-6.93,20.34c-2.16,6.35-4.51,22.27-3.98,27.74,1.62,16.66,11.6,30,21.09,42.59,7.09,9.41,15.72,13.62,27.44,14.09l12.83.52c-12.68,30.27-11.83,67.83,13.49,91.84,6.11,5.8,12.26,11.04,20.58,13.69,18.12,5.77,21,1.91,34.98,8.47-10.55,21.07-13.29,32.13-25.78,51.82-5.66,8.93-10.03,18.11-14.8,28.06l-.19-12.16c-.04-2.88-5.82-6.58-8-3.87-7.51,9.39-14.63,18.5-22.91,27.05l-4.75,4.9,5.93-19.67c3.15-10.44,7.4-20.22,11.41-30.44l18.34-46.7c1.5-3.82-1.35-8.37-4.39-8.91-4.02-.71-6.63,1.85-7.84,5.69l-5.97,19.03-20.45,52.85Z"/>
  <path d="M148.34,476.69l20.45-52.85,5.97-19.03c1.2-3.84,3.82-6.41,7.84-5.69,3.04.54,5.89,5.09,4.39,8.91l-18.34,46.7c-4.01,10.22-8.27,20-11.41,30.44l-5.93,19.67,4.75-4.9c8.28-8.55,15.39-17.67,22.91-27.05,2.17-2.71,7.95.99,8,3.87l.19,12.16c4.77-9.95,9.13-19.13,14.8-28.06,12.49-19.69,15.23-30.75,25.78-51.82-13.98-6.56-16.86-2.7-34.98-8.47-8.32-2.65-14.47-7.89-20.58-13.69-25.32-24.02-26.16-61.58-13.49-91.84l-12.83-.52c-11.72-.48-20.35-4.68-27.44-14.09-9.48-12.6-19.47-25.93-21.09-42.59-.53-5.47,1.82-21.38,3.98-27.74l6.93-20.34,1.9-5.76c-6.74-9.37-13.13-18.83-20.38-27.72-2.6-3.18-5.35-5.94-7.72-9.19-5.15-7.07-10.37-13.76-14.79-21.23-5.78-9.77-9.49-11.96-7.51-16.72,2.61-6.28,15.16,1.65,18.67,3.17l13.42,5.83c-11.22-18.01-17.83-40.05-30-55.02l-18.83-23.16c-2.58-3.18-5.33-7.66-3.48-11.58.79-1.67,5.01-2.89,6.58-2.1,3.49,1.75,19.45,17.79,23.4,22.22l17.93,20.12,13.08,13.95c9.72,10.36,19.34,20.39,27.93,31.92,3.91,5.24,7.52,10.28,11.82,15.27l9.69,11.24,2.67,3.11c.63.73,3.63-.91,3.34-1.99-3.14-11.79-4.03-24.39.26-35.89,8.62-23.08,18.08-31.74,35.73-48.21,8.18-7.63,18.79-11.34,29.56-14.76,20.37-6.47,49.96-1.02,66.12,14.67l16.63-14.58c1.53-1.34,4.06-3.12,5.68-4.18l10.84-7.05c21.14-13.76,35.93-17.58,61.28-13.83,5.56.82,11.26,3.06,16.34,5.16,13.4,5.54,10.81,2.99,23.07,12.98l9.54,7.77c8.15,6.64,12.88,16.57,17.9,25.85,32.63-12.79,70.63-19.38,101.28-32.9,3.01-1.33,7.98-4.22,10.8-.98,2.96,3.4.06,9.83-3.27,12.33-2.31,1.74-4.74,3.68-6.84,4.92l-20.82,12.36c3.34.22,6.88-.1,10.58-1.05l42.07-10.83c12.89-3.32,25.43-5.93,38.22-10.05,6.1-1.97,30.65-9.5,33.9-5.4,2.06,2.59-.03,8.82-5.17,10.99l-8.69,3.67-10.61,4.2c-11.47,4.54-22.29,9.24-33.43,14.44l-38.21,17.82c-21.61,10.08-31.53,12.08-53.81,22.19,8.82,7.91,13.06,17.22,16.86,27.66,11.38,31.25,12.96,61.11-4.96,90.51-8.61,14.12-20.91,26.43-37.82,29.99-2.33.49-6.75.19-8.64,1.08l-1.09,16.01c-.45,6.71-1.12,13.45-3.72,19.53-5.53,12.93-17.09,29.26-29.25,36.68-28.81,17.59-12.17,10.61-48.27,25.7l-13.44,5.62c-1.65.69-5.63-.11-7.32.18l-10.14,1.75c-10.9,1.88-21.32-.2-28.77-8.77l-13.04,21.66c-4.13,6.87-9.61,11.6-16.41,15.59s-13.23,9.1-20.72,12.11c-14.58,5.84-26.77,6-43.43,3.94,1.62,5.51,1.42,9.64-.61,14.13-5.5,12.2-9.92,24.63-17.37,35.78-9.3,13.92-16.16,27.9-23.28,42.73l-11.92,24.83c-2.72,5.67-4.61,11.56-6.61,17.59-5.89,17.72-14.39,33.6-22.6,50.34-2.34,4.78-7.89,22.18-14.81,15.77-1.19-1.1-3.07-4.36-2.72-6.01,1.98-9.23,3.91-17.4,7.29-26.12l15.93-41.1c4.85-12.51,9.25-23.16,12.61-36.79-3.56,3.16-6.25,5.88-9.26,9.38-5.59,6.51-11.71,12.05-18.01,18.07-2.75,2.63-6.54,6.33-11.32,2.45-2.95-2.39-.43-8.53.88-11.97l11.08-29.1,4.29-14.25ZM324.54,335.58c2.38-8.22,1.82-16.97.28-25.71-.95-5.37-3.43-11.05-5.4-16.09-3.86-9.88-10.39-16.84-19.73-21.77-2.43-1.28-2.54-7.68.01-9.11s7.32-1.41,9.09.02l5.18,4.17c20.23,16.29,27.96,53.33,19.97,77.49,2.21,3.11,4.49,7.02,7.57,8.72,6.42,3.54,26.81-.99,34.5-3.47,6.69-2.16,13.01-5.41,19.54-8.22,7.4-3.18,14.68-6.16,21.34-10.65,17.88-12.06,20.21-12.48,32.44-29.62,6.17-8.64,9.1-17.69,8.97-28.33-.06-4.36,1.98-9.87-.33-13.84-1.23-2.12-2.64-4.8-2.99-6.76,3.67-3.4,2.98-7.04,1.99-11.23-1.32-5.59-2.28-11.24-4.79-16.33-8.42-17.05-7.97-17.78-22.88-23.12-8.45-3.02-16.27-2.15-24.52,1.09-2.74,1.08-7.15-.89-7.71-3.27-2.47-10.66,21.12-11.01,26.81-10.25,17.93,2.41,26.12,6.23,34.35,21.23l3.87,7.04c5.61,10.21,5.37,29.5,8.1,30.85.91.45,3.59.77,4.62.51,14.05-3.56,25.44-13.02,32.24-25.8,3.19-6.01,6.99-12.3,8.86-18.93,3.83-13.63,5.22-28.99,1.04-42.49l-5.15-16.63c-3.32-10.72-9.53-20.54-16.89-28.72-2.81-.52-6.6-1.46-8.25-2.39-.65-3.94-1.85-6.05-5.12-7.62-4.54-2.18-9.25-5.15-13.95-6.62-7.94-2.48-17.59-.07-24.48,3.33-1.2,1.45-3.3,5.48-5.08,5.39-2.65-.14-6.97-.97-8.8.47-10.18,8.06-17.19,17.27-25.02,27.35-1.56,2.01-6.08-.4-7.06-2.08-.88-1.51-1.52-5.47-.16-7.18,6.9-8.63,25.23-28.68,35.08-32.81,1.6-1.13,3.33-5.35,3.84-6.62l-5.31-2.15c-1.15-1.02-1.14-5.87-.06-7.09s3.25-2.34,5.41-3.69c3.16-1.98-.18-5.87-1.18-8.05-4.9-10.7-12.76-17.74-22.35-24.21-2.6-1.75-5.29-4.25-8.22-5.69-7.96-3.93-15.62-6.9-24.4-8.71-26.73-5.52-37.99,4.12-59.05,16.53-8.35,4.92-20.38,13.97-24.95,21.82,11.08,10.63,14.15,35.17,9.09,48.87-2.76,7.48-7.41,15.75-13.52,20.94-3.21,2.73-28.06,13.41-27.52,1.38.14-3.19,2.68-4.12,6.58-5.33-19.37-4.39-11.47-31.51-7.18-43.77,3.39-9.69,8.93-16.86,17.9-22.48-12.02-10.04-22.07-14.44-37.06-15.44-10.31-.69-14.31.27-23.58,3.79l-7.91,2.99c-6.18,2.34-11.26,5.84-16.04,10.19-11.18,10.17-19.73,18.98-26.72,32.58s-8.33,30.81-.9,44.8c2.41,4.54,4.9,8.21,8.99,11.27,12.78,9.57,11.57,1.65,20.27,2.25,1.8,4.01-.41,7.61-2.75,9.74-11,9.99-27.81-4.83-35.32-14.61-6.17-.12-12.13,4.64-17.15,8.29-13.9,10.11-23.42,25.99-27.74,42.63-2.25,8.65-6.09,12-6.01,26.5.08,16.03,8.41,29.06,17.68,41.01,4.86,6.26,9.7,10.25,18.19,10.19l39.91-.28c10.98-.08,20.18-7.06,26.48-15.31,8.07-10.56,20.46-30.56,4.8-39.8l-6.19,4.72c-2.41-2.14-3.43-5.26-2.83-7.38.47-1.66,2.41-4.89,4.29-5.7,3.43-1.48,9.01-1.24,12.36.77,13.18,7.9,11.74,25.57,6.35,38.33-4.59,10.88-12.38,19.68-21.06,27.81-6.89,6.45-16.23,8.58-25.54,9.27l-11.21.84c-7.45,9.39-12.05,36.43-10.02,47.49,3.32,18.12,14.22,37.58,32.27,45.22,5.61,2.37,12.21,2.11,18.13,3.47,10.7,2.46,21.11,6.51,31.95,7.37,15.82,1.25,29.51-3.68,42.23-11.83,6.3-4.04,12.2-7.54,16.68-13.56,7.49-10.07,17.37-25.88,20.87-37.95ZM560.27,76.54c12.79-6.62,17.35-6.48,27.97-12.78-30.16,6.54-47.48,13.01-78.5,15.92-3.52.33-6.48-2.43-6.89-5.02-.74-4.69,2-5.41,5.4-7.46,5.46-3.29,10.43-6.82,15.42-10.26l-21.18,6.4c-17.92,5.41-35.17,10.34-52.61,17.55-1.01,2.9-1.88,6-2.54,8.78,21.12-1.77,25.41-1.77,42.47,9.43,9.6,6.31,9.02,1.08,27.33-4.56,17.55-5.41,26.95-9.61,43.12-17.98ZM269.8,119.96c2.98,1.07,4.9,1.72,7.03,2.69,2.46,1.11.74,5.96-.47,8.3,2.03-.46,6.8-1.59,8.39-3.2,13.74-13.98,16.33-35.33,5.43-52.25l-3.05,7.72,3.6,1.59c.56.24.37,2.73.12,3.29-1.29,2.85-5.95,4.79-9.07,3.57-2.48-.97-4.33-4.42-5.32-7.7l-4.65,11.94c-2.98,7.65-3.9,16.25-2,24.05ZM132.8,156.38l8.46-6.67-9.72-12.14c-8.39-10.49-14.12-19.46-22.39-28.67l-15.23-16.97c-1.54-1.72-4.01-3.75-6.14-5.67,6.89,17,16.12,31.55,26.47,46.36,1.01,1.45.77,5.27-.01,6.75-.65,1.24-3.63,3.04-4.86,2.29-10.07-6.2-19.01-12.76-30.55-16.92l17.09,22.45c2.84,3.73,5.89,7.16,9.19,10.7l11.34,15.43c5.06-7.16,9.86-11.84,16.34-16.94Z"/>
  <path class="cls-1" d="M324.54,335.58c-3.49,12.07-13.38,27.88-20.87,37.95-4.47,6.01-10.37,9.52-16.68,13.56-12.72,8.15-26.41,13.08-42.23,11.83-10.84-.86-21.25-4.91-31.95-7.37-5.92-1.36-12.51-1.09-18.13-3.47-18.06-7.64-28.96-27.1-32.27-45.22-2.02-11.05,2.57-38.1,10.02-47.49l11.21-.84c9.31-.69,18.65-2.82,25.54-9.27,8.68-8.13,16.47-16.93,21.06-27.81,5.38-12.75,6.83-30.42-6.35-38.33-3.35-2.01-8.93-2.25-12.36-.77-1.89.81-3.82,4.04-4.29,5.7-.6,2.12.42,5.23,2.83,7.38l6.19-4.72c15.66,9.24,3.27,29.24-4.8,39.8-6.3,8.25-15.5,15.24-26.48,15.31l-39.91.28c-8.5.06-13.34-3.92-18.19-10.19-9.26-11.94-17.6-24.98-17.68-41.01-.07-14.51,3.77-17.85,6.01-26.5,4.32-16.64,13.84-32.52,27.74-42.63,5.02-3.65,10.98-8.41,17.15-8.29,7.51,9.78,24.32,24.6,35.32,14.61,2.35-2.13,4.56-5.73,2.75-9.74-8.7-.6-7.49,7.32-20.27-2.25-4.09-3.06-6.58-6.74-8.99-11.27-7.42-13.99-6.38-30.65.9-44.8s15.54-22.4,26.72-32.58c4.78-4.34,9.87-7.85,16.04-10.19l7.91-2.99c9.28-3.51,13.27-4.48,23.58-3.79,14.99,1,25.04,5.4,37.06,15.44-8.97,5.62-14.52,12.79-17.9,22.48-4.29,12.27-12.19,39.38,7.18,43.77-3.9,1.21-6.43,2.14-6.58,5.33-.54,12.03,24.31,1.35,27.52-1.38,6.11-5.2,10.76-13.46,13.52-20.94,5.06-13.7,1.99-38.24-9.09-48.87,4.57-7.85,16.6-16.9,24.95-21.82,21.06-12.41,32.32-22.05,59.05-16.53,8.78,1.81,16.44,4.78,24.4,8.71,2.93,1.45,5.62,3.94,8.22,5.69,9.59,6.47,17.45,13.51,22.35,24.21,1,2.18,4.33,6.07,1.18,8.05-2.15,1.35-4.33,2.46-5.41,3.69s-1.08,6.08.06,7.09l5.31,2.15c-.51,1.27-2.25,5.49-3.84,6.62-9.85,4.13-28.18,24.18-35.08,32.81-1.37,1.71-.72,5.67.16,7.18.98,1.68,5.5,4.1,7.06,2.08,7.83-10.08,14.84-19.29,25.02-27.35,1.82-1.44,6.14-.61,8.8-.47,1.79.09,3.88-3.94,5.08-5.39,6.89-3.41,16.55-5.81,24.48-3.33,4.71,1.47,9.41,4.44,13.95,6.62,3.27,1.57,4.48,3.68,5.12,7.62,1.65.93,5.44,1.88,8.25,2.39,7.36,8.18,13.57,17.99,16.89,28.72l5.15,16.63c4.18,13.5,2.8,28.86-1.04,42.49-1.87,6.63-5.66,12.92-8.86,18.93-6.79,12.78-18.19,22.24-32.24,25.8-1.03.26-3.71-.06-4.62-.51-2.72-1.35-2.49-20.64-8.1-30.85l-3.87-7.04c-8.23-14.99-16.42-18.81-34.35-21.23-5.69-.77-29.29-.41-26.81,10.25.55,2.38,4.97,4.35,7.71,3.27,8.25-3.24,16.06-4.11,24.52-1.09,14.91,5.34,14.47,6.07,22.88,23.12,2.51,5.09,3.47,10.75,4.79,16.33.99,4.19,1.68,7.83-1.99,11.23.35,1.96,1.76,4.64,2.99,6.76,2.31,3.97.27,9.47.33,13.84.14,10.64-2.8,19.69-8.97,28.33-12.23,17.14-14.57,17.57-32.44,29.62-6.66,4.49-13.94,7.47-21.34,10.65-6.53,2.81-12.85,6.06-19.54,8.22-7.69,2.48-28.08,7.02-34.5,3.47-3.08-1.7-5.36-5.61-7.57-8.72,7.99-24.15.26-61.2-19.97-77.49l-5.18-4.17c-1.78-1.43-6.67-1.37-9.09-.02-2.55,1.43-2.44,7.83-.01,9.11,9.34,4.92,15.87,11.88,19.73,21.77,1.97,5.05,4.45,10.73,5.4,16.09,1.54,8.74,2.1,17.48-.28,25.71ZM338.45,164.5c4.04-5.81,6.64-9.66,12.13-12.97,2.94-1.77,4.7-5.68,2.71-8.44-1.55-2.16-5.78-2.6-8.11-1.06-6.34,4.19-17.15,11.13-13.4,19.38.83,1.83,5.45,4.85,6.67,3.09ZM301.55,236.46l1.76-10.6,16.03.28,2.16,10.21c.59,2.79,1.19,7.03,2.76,9.04,1.09,1.4,6.22.98,7.37-.33,4.87-5.57-4.19-17.02.57-21.72,4.31,6.25,6.56,17.54,10.66,19.28,1.79.76,5.88-.17,6.56-1.95,3.29-8.64-4.01-13.76-5.88-21.29l6.67-4.65,11.98,11.08c3.31,3.07,6.81,5.89,10.65,8.22,1.52.92,6.27-.06,6.99-1.57.63-1.32,1.13-4.52.53-6.03-1.71-1.32-23.37-19.85-20.1-20.89.53-.17,2.4-.61,2.98-.36l9.69,4.17c3.28,1.41,7.47-2,7.94-4.9,1.2-7.3-7.1-8.24-9.54-9.35-.57-.26-.26-1.98-.2-3.37.1-2.41-2.99-4.64-3.85-6.27-1.16-2.17-.56-6.26-3.5-8.05l-9.63-5.86,8.79-9.41c2.35-2.52,1.08-8.06-1.49-8.81-3.72-1.07-6.27-.08-8.42,2.6l-11.03,13.7-29.01-2.89,4.29-1.82c.76-.32.66-2.89.9-3.76l3.01-11.26c.49-1.82-2.18-5.28-3.84-5.62-7.36-1.51-9.23,11-10.1,16.26l2.88,6.23c-6.33-.66-9.16-.82-14.65.38-4.75-5.23-6.4-15.45-10.17-16.92-2.04-.79-6.18.02-6.73,1.98-.72,2.57-1.09,7.38.11,9.24l4.83,7.46-17.01,4.04c-1.39.33-3.32.54-3.65-.3-1.93-4.84,3.94-2.82,3.2-6.89-.14-.75-1.25-2.82-1.95-3.1l-9.22-3.58c-4.09-1.59-9.01-4.1-13.03-2.44-1.1,1.6-1.22,6.2.03,7.52l11.18,11.78c-5.06,1.98-9.52,2.5-10.54,7.15-.79,3.63,2.38,6.58,4.42,8.81l5.07,5.56-9.29,8.55c-1.34,1.23-2.05,5.14-1.17,6.88,3.45,6.75,14.19-3.88,17.56-7.21l7,7.17-6.59,13.72c-.75,1.56-.41,5.28.32,6.74.62,1.26,3.67,3.24,4.98,2.45,3.08-1.84,5.48-5.71,7.26-8.75l4.3-7.35,15.11,5.22c1.97,4.28-2.17,11.15.09,17.35,1.28,1.06,5.41.66,6.77-.21s2.84-3.41,3.19-5.53ZM384.17,166.2c1.15-1.24,1.15-5.52-.12-6.58-5.84-4.88-16.57,4.05-20.85,8.23-1.79,1.74-1.36,6.63.34,7.74,4.68,3.08,16.97-5.47,20.64-9.39Z"/>
  <path class="cls-1" d="M560.27,76.54c-16.17,8.37-25.56,12.57-43.12,17.98-18.32,5.65-17.73,10.87-27.33,4.56-17.06-11.2-21.35-11.2-42.47-9.43.67-2.78,1.53-5.88,2.54-8.78,17.44-7.21,34.69-12.14,52.61-17.55l21.18-6.4c-5,3.44-9.96,6.97-15.42,10.26-3.41,2.05-6.14,2.77-5.4,7.46.41,2.59,3.37,5.35,6.89,5.02,31.02-2.92,48.34-9.38,78.5-15.92-10.62,6.3-15.18,6.16-27.97,12.78Z"/>
  <path class="cls-1" d="M132.8,156.38c-6.48,5.11-11.28,9.78-16.34,16.94l-11.34-15.43c-3.3-3.55-6.35-6.98-9.19-10.7l-17.09-22.45c11.54,4.16,20.49,10.72,30.55,16.92,1.22.75,4.2-1.05,4.86-2.29.78-1.48,1.03-5.3.01-6.75-10.35-14.81-19.59-29.37-26.47-46.36,2.14,1.92,4.6,3.95,6.14,5.67l15.23,16.97c8.27,9.21,13.99,18.18,22.39,28.67l9.72,12.14-8.46,6.67Z"/>
  <path class="cls-1" d="M269.8,119.96c-1.9-7.79-.97-16.39,2-24.05l4.65-11.94c.99,3.28,2.84,6.73,5.32,7.7,3.12,1.22,7.78-.72,9.07-3.57.26-.57.44-3.05-.12-3.29l-3.6-1.59,3.05-7.72c10.91,16.91,8.32,38.26-5.43,52.25-1.59,1.61-6.36,2.74-8.39,3.2,1.21-2.34,2.93-7.18.47-8.3-2.13-.96-4.05-1.62-7.03-2.69Z"/>
  <path d="M301.55,236.46c-.35,2.12-1.88,4.68-3.19,5.53s-5.49,1.27-6.77.21c-2.26-6.21,1.88-13.08-.09-17.35l-15.11-5.22-4.3,7.35c-1.78,3.04-4.18,6.91-7.26,8.75-1.31.79-4.36-1.19-4.98-2.45-.72-1.46-1.07-5.18-.32-6.74l6.59-13.72-7-7.17c-3.38,3.33-14.12,13.97-17.56,7.21-.89-1.74-.17-5.65,1.17-6.88l9.29-8.55-5.07-5.56c-2.04-2.24-5.21-5.18-4.42-8.81,1.01-4.65,5.48-5.17,10.54-7.15l-11.18-11.78c-1.25-1.32-1.13-5.92-.03-7.52,4.02-1.66,8.94.85,13.03,2.44l9.22,3.58c.71.28,1.82,2.35,1.95,3.1.74,4.07-5.13,2.06-3.2,6.89.33.84,2.26.63,3.65.3l17.01-4.04-4.83-7.46c-1.2-1.86-.84-6.67-.11-9.24.55-1.96,4.69-2.78,6.73-1.98,3.77,1.47,5.42,11.69,10.17,16.92,5.5-1.21,8.32-1.04,14.65-.38l-2.88-6.23c.87-5.25,2.74-17.77,10.1-16.26,1.66.34,4.33,3.8,3.84,5.62l-3.01,11.26c-.23.88-.14,3.44-.9,3.76l-4.29,1.82,29.01,2.89,11.03-13.7c2.16-2.68,4.7-3.67,8.42-2.6,2.57.74,3.85,6.28,1.49,8.81l-8.79,9.41,9.63,5.86c2.95,1.79,2.35,5.88,3.5,8.05.87,1.63,3.95,3.86,3.85,6.27-.06,1.39-.37,3.12.2,3.37,2.44,1.11,10.74,2.05,9.54,9.35-.48,2.9-4.66,6.31-7.94,4.9l-9.69-4.17c-.57-.25-2.44.19-2.98.36-3.27,1.05,18.39,19.57,20.1,20.89.6,1.51.1,4.72-.53,6.03-.72,1.5-5.47,2.49-6.99,1.57-3.84-2.33-7.34-5.15-10.65-8.22l-11.98-11.08-6.67,4.65c1.88,7.53,9.17,12.65,5.88,21.29-.68,1.79-4.77,2.71-6.56,1.95-4.1-1.73-6.36-13.03-10.66-19.28-4.76,4.7,4.3,16.15-.57,21.72-1.15,1.32-6.28,1.73-7.37.33-1.57-2.01-2.17-6.25-2.76-9.04l-2.16-10.21-16.03-.28-1.76,10.6ZM348.72,181.85c-4.35-2.46-10.8-1.97-16.22-3.01l1.9,15.11c.95,7.53,1.74,11.38-4.5,14.51-1.29.65-5.48-.09-5.52-1.58l-.56-17.79c-.2-6.4-6.13-5.54-10.06-11.91-3.81-.25-10.28-.15-14.19.12-1.37.18-1.39,4.49-1.86,5.86-2.74,7.99-6.12,17.85-2.19,26.37,4.75-3.07,7.53,1.99,10.3,2.55,12.95,2.62,29.13,0,39.13-8.98l15.97-14.34-5.47-3.09-6.73-3.81ZM284.07,209.09c-.68-11.35.25-19.2,3.42-29.65-10.08,1.99-18.21,3.92-28.01,6.65,3.2,6.2,7.16,9.51,11.68,13.81,3.89,3.7,7.31,8.17,12.92,9.19Z"/>
  <path d="M338.45,164.5c-1.22,1.76-5.84-1.26-6.67-3.09-3.74-8.25,7.07-15.19,13.4-19.38,2.34-1.54,6.56-1.1,8.11,1.06,1.99,2.76.23,6.67-2.71,8.44-5.49,3.31-8.09,7.16-12.13,12.97Z"/>
  <path d="M384.17,166.2c-3.66,3.93-15.95,12.47-20.64,9.39-1.69-1.11-2.12-6-.34-7.74,4.29-4.18,15.01-13.11,20.85-8.23,1.27,1.06,1.27,5.34.12,6.58Z"/>
  <path class="cls-1" d="M348.72,181.85l6.73,3.81,5.47,3.09-15.97,14.34c-10,8.98-26.18,11.6-39.13,8.98-2.78-.56-5.55-5.61-10.3-2.55-3.92-8.52-.55-18.38,2.19-26.37.47-1.37.49-5.69,1.86-5.86,3.9-.27,10.37-.36,14.19-.12,3.93,6.37,9.86,5.51,10.06,11.91l.56,17.79c.05,1.49,4.24,2.23,5.52,1.58,6.24-3.13,5.45-6.98,4.5-14.51l-1.9-15.11c5.42,1.04,11.88.55,16.22,3.01ZM312.7,200.53c5.87-3.8,6.13-10.35,4.59-15.67-5.66-3.48-11.9-1.84-15.47,4.31-1.64,2.83-.89,7.99.06,11.67l10.81-.31Z"/>
  <path class="cls-1" d="M284.07,209.09c-5.6-1.02-9.03-5.5-12.92-9.19-4.52-4.3-8.47-7.61-11.68-13.81,9.81-2.73,17.93-4.67,28.01-6.65-3.17,10.45-4.1,18.3-3.42,29.65Z"/>
  <path d="M312.7,200.53l-10.81.31c-.95-3.69-1.7-8.85-.06-11.67,3.56-6.15,9.81-7.79,15.47-4.31,1.54,5.32,1.28,11.87-4.59,15.67Z"/>
</svg>